<svg width="300" height="300" viewBox="0 0 300 300" fill="none" xmlns="http://www.w3.org/2000/svg">
<rect width="300" height="300" rx="150" fill="white"/>
<path d="M117.154 160.038C111.415 160.038 105.676 160.049 99.9394 160.024C99.3399 160.024 99.167 160.186 99.1832 160.778C99.2237 162.128 99.1481 163.481 99.2102 164.826C99.2615 165.893 98.7943 166.617 98.0003 167.232C96.6499 168.28 95.0727 168.875 93.5144 169.501C92.9121 169.744 92.2964 169.955 91.6887 170.187C91.0189 170.444 90.6435 170.203 90.6435 169.471C90.6435 160.537 90.5382 151.601 90.6975 142.669C90.7705 138.535 92.8743 135.291 96.3205 132.976C98.3811 131.596 100.658 131.016 103.14 131.024C112.479 131.051 121.818 131.097 131.157 131.01C136.367 130.962 140.937 134.267 142.743 138.84C143.308 140.266 143.602 141.762 143.599 143.312C143.589 151.976 143.586 160.64 143.578 169.304C143.578 170.303 143.294 170.454 142.327 170.09C140.61 169.436 138.87 168.834 137.264 167.921C136.713 167.608 136.216 167.23 135.757 166.798C135.295 166.363 135.068 165.834 135.079 165.175C135.103 163.757 135.092 162.339 135.084 160.921C135.079 159.951 135.216 160.043 134.233 160.043C128.54 160.04 122.847 160.043 117.154 160.043V160.038ZM117.154 151.603C122.89 151.603 128.627 151.593 134.363 151.62C134.971 151.622 135.108 151.458 135.1 150.871C135.065 148.487 135.087 146.102 135.087 143.717C135.087 141.057 133.364 139.318 130.717 139.318C121.651 139.318 112.587 139.318 103.521 139.318C100.901 139.318 99.2129 140.984 99.1994 143.596C99.1859 146.026 99.2183 148.454 99.1832 150.885C99.1751 151.498 99.3723 151.62 99.9475 151.617C105.684 151.595 111.42 151.603 117.157 151.603H117.154Z" fill="#323E48"/>
<path d="M54.864 131.007C61.7725 131.007 68.6836 131.007 75.5921 131.007C75.8163 131.007 76.0458 130.993 76.2673 131.026C76.6238 131.074 76.7696 131.228 76.6103 131.625C75.7947 133.664 75.0574 135.736 74.0284 137.686C73.3964 138.882 72.4971 139.476 71.0711 139.473C59.3445 139.438 47.6206 139.455 35.8941 139.455C34.5248 139.455 33.2582 139.695 32.3264 140.837C31.8133 141.469 31.4757 142.163 31.4703 142.982C31.4514 146.088 31.446 149.193 31.4379 152.299C31.4325 154.076 31.4919 155.856 31.4244 157.633C31.3244 160.261 33.2311 161.876 35.6591 161.868C47.4289 161.836 59.2014 161.873 70.9712 161.83C72.4782 161.825 73.4207 162.422 74.0878 163.704C75.0925 165.641 75.7947 167.704 76.6373 169.708C76.7804 170.046 76.5833 170.229 76.2916 170.297C76.0782 170.346 75.8433 170.316 75.6191 170.316C62.2505 170.316 48.8819 170.335 35.5133 170.308C30.4062 170.297 26.6387 167.945 24.2431 163.451C23.4356 161.933 23.0116 160.258 23.0008 158.533C22.9711 153.312 22.9468 148.089 23.0008 142.868C23.0575 137.578 26.9168 132.765 32.0185 131.415C33.1447 131.117 34.2736 131.012 35.4187 131.009C41.9005 131.004 48.3822 131.007 54.864 131.007V131.007Z" fill="#323E48"/>
<path d="M189.384 131.005C196.246 131.005 203.111 131.005 209.974 131.005C210.176 131.005 210.379 130.997 210.582 131.008C211.197 131.041 211.327 131.208 211.1 131.759C210.336 133.625 209.658 135.529 208.75 137.333C208.056 138.711 207.103 139.494 205.38 139.486C193.702 139.424 182.021 139.456 170.343 139.448C168.593 139.448 167.181 139.991 166.349 141.652C166.065 142.216 165.998 142.808 165.995 143.415C165.987 145.868 166.014 148.323 165.976 150.775C165.966 151.418 166.141 151.607 166.797 151.604C177.192 151.585 187.59 151.59 197.985 151.59C198.21 151.59 198.445 151.561 198.658 151.612C198.955 151.68 199.133 151.866 198.987 152.206C198.072 154.348 197.329 156.568 196.154 158.596C195.587 159.579 194.777 160.022 193.607 160.022C184.698 160.009 175.785 160.03 166.876 160.041C166.285 160.041 165.99 160.33 165.99 160.908C165.99 162.056 165.887 163.214 166.014 164.349C166.2 166.023 165.352 167.017 164.062 167.798C162.284 168.872 160.31 169.496 158.393 170.25C157.931 170.431 157.655 170.193 157.55 169.753C157.51 169.583 157.531 169.394 157.531 169.215C157.531 160.665 157.523 152.114 157.531 143.561C157.537 138.676 159.689 134.978 163.864 132.496C165.693 131.402 167.737 130.995 169.873 131C176.377 131.016 182.88 131.005 189.384 131.005Z" fill="#323E48"/>
<path d="M249.836 170.321C245.202 170.321 240.564 170.356 235.93 170.312C230.791 170.264 227.023 167.898 224.644 163.361C223.788 161.727 223.418 159.923 223.412 158.089C223.385 149.357 223.401 140.626 223.401 131.895C223.401 131.076 223.612 130.874 224.276 131.149C226.267 131.967 228.284 132.718 230.186 133.745C231.368 134.385 231.906 135.306 231.898 136.688C231.86 143.686 231.879 150.686 231.882 157.684C231.882 160.301 233.451 161.856 236.089 161.856C245.272 161.856 254.452 161.835 263.634 161.87C266.138 161.881 267.866 160.082 267.839 157.662C267.766 150.778 267.858 143.889 267.782 137.004C267.763 135.27 268.452 134.206 269.935 133.488C271.734 132.618 273.594 131.895 275.442 131.138C276.041 130.893 276.29 131.079 276.292 131.708C276.295 140.621 276.392 149.533 276.257 158.443C276.179 163.607 272.827 167.914 268.109 169.589C266.672 170.099 265.201 170.323 263.68 170.321C259.067 170.312 254.454 170.321 249.841 170.321H249.836Z" fill="#323E48"/>
</svg>
