<svg width="277" height="277" viewBox="0 0 277 277" fill="none" xmlns="http://www.w3.org/2000/svg">
<rect width="277" height="277" rx="138.5" fill="#5D1CD4"/>
<path d="M29.6398 112.551C29.0191 113.172 28.9304 116.098 28.9304 138.444C28.9304 162.963 28.9748 163.717 29.7728 164.16C30.2606 164.426 33.8519 164.604 38.197 164.604C44.4486 164.604 45.8231 164.471 46.3995 163.894C46.9759 163.318 47.1089 161.943 47.1089 155.692V148.199H57.7499C67.7703 148.199 68.391 148.154 68.8344 147.356C69.4108 146.204 69.4108 135.119 68.8344 133.966C68.391 133.168 67.7703 133.124 57.7499 133.124H47.1089V130.242V127.36H58.3263C66.4401 127.36 69.6768 127.227 70.0758 126.828C70.4305 126.473 70.6079 124.256 70.6079 119.778C70.6079 114.413 70.4749 113.128 69.8985 112.551C69.2778 111.931 66.8392 111.842 49.7692 111.842C32.6991 111.842 30.2606 111.931 29.6398 112.551Z" fill="white"/>
<circle cx="105" cy="134" r="20" fill="#E6E6F3"/>
<path d="M100.757 107.939C92.3333 109.313 84.9732 114.9 81.2932 122.659C79.431 126.56 78.8103 129.487 78.8103 134.009C78.8103 144.695 85.727 154.582 95.7473 158.218C98.4963 159.193 98.5849 159.282 100.669 162.917C104.925 170.322 104.837 170.277 108.339 163.982L110.955 159.37L113.615 158.395C132.016 151.833 136.893 128.201 122.616 114.767C116.719 109.18 108.561 106.609 100.757 107.939ZM109.359 114.589C116.32 116.185 122.394 122.26 123.99 129.221C125.099 133.921 124.168 139.64 121.685 143.897C120.089 146.69 116.01 150.326 113.128 151.611C105.28 155.07 96.9444 153.607 90.9588 147.621C84.5742 141.192 83.2441 132.103 87.5448 124.211C89.8504 119.954 95.3926 115.653 99.9151 114.589C102.265 114.057 107.009 114.013 109.359 114.589Z" fill="white"/>
<path d="M97.6097 125.319C89.1855 130.994 89.3629 130.817 89.9392 131.881C90.1609 132.324 90.56 132.723 90.7817 132.723C91.0033 132.723 94.24 130.728 98.053 128.245L104.925 123.812L109.492 126.826C118.138 132.59 118.67 132.901 119.379 132.28C120.488 131.349 120.133 130.684 117.828 129.176C115.699 127.802 115.655 127.758 115.522 125.275L115.389 122.747L113.749 122.614C112.197 122.481 112.064 122.57 112.064 123.59C112.064 124.211 111.842 124.743 111.62 124.743C111.354 124.743 109.803 123.856 108.162 122.747C106.522 121.639 105.014 120.752 104.748 120.797C104.526 120.797 101.29 122.836 97.6097 125.319Z" fill="#5D1CD4"/>
<path d="M99.6489 130.906C99.6489 131.127 100.137 131.925 100.757 132.635C101.378 133.389 101.866 134.098 101.866 134.231C101.866 134.896 100.846 134.364 99.6933 133.078C98.1414 131.305 97.299 131.748 98.6735 133.61C100.491 136.005 99.6933 136.714 97.7867 134.408C96.3236 132.591 95.7029 133.078 96.8113 135.206C97.8754 137.202 98.4075 137.645 100.181 138C101.334 138.221 102.088 138.975 103.95 141.591C105.235 143.409 106.832 145.36 107.452 145.936C108.472 146.867 108.738 146.912 109.27 146.335C110.157 145.449 109.315 143.897 105.901 139.995C103.595 137.379 103.329 136.803 103.506 135.561C103.684 134.408 103.462 133.876 102.088 132.325C100.491 130.551 99.6489 130.063 99.6489 130.906Z" fill="#5D1CD4"/>
<path d="M108.65 131.172C106.787 131.97 105.856 133.832 105.989 136.448C106.122 138.576 106.832 139.862 107.364 138.975C107.541 138.709 108.118 138.487 108.65 138.487C111.443 138.487 113.926 135.073 112.95 132.546C112.64 131.659 110.866 130.374 110.157 130.507C110.113 130.551 109.448 130.817 108.65 131.172Z" fill="#5D1CD4"/>
<path d="M101.245 143.054C98.984 146.025 100.447 147.798 102.974 145.138C104.172 143.897 104.172 143.808 103.462 142.699C103.063 142.079 102.664 141.591 102.531 141.591C102.442 141.591 101.866 142.256 101.245 143.054Z" fill="#5D1CD4"/>
<circle cx="165.5" cy="134.5" r="20.5" fill="#E6E6F3"/>
<path d="M160.85 108.228C155.441 109.115 148.968 112.573 145.687 116.342C143.381 118.958 141.164 122.771 140.1 125.83C138.903 129.377 138.637 135.939 139.524 139.708C141.652 148.886 148.303 156.291 156.55 158.773C158.235 159.261 158.678 159.66 160.274 162.453C163.422 167.907 164.176 168.927 164.974 168.927C165.506 168.927 166.614 167.464 168.388 164.316C171.004 159.749 171.092 159.66 173.487 158.773C181.556 155.803 187.276 149.817 189.936 141.659C191.355 137.358 191.355 130.929 189.98 126.584C187.098 117.318 179.162 110.179 169.807 108.406C165.994 107.696 164.264 107.652 160.85 108.228ZM169.452 114.879C175.083 116.165 180.049 120.2 182.62 125.653C185.414 131.506 185.192 137.935 182 143.787C180.758 146.137 175.482 151.369 174.772 150.97C174.551 150.793 174.373 149.063 174.329 147.068C174.329 145.073 174.152 142.235 173.93 140.772C173.62 138.156 173.62 138.068 175.083 136.516C175.925 135.673 176.768 134.343 176.989 133.545C177.566 131.683 176.679 125.919 175.837 125.609C174.772 125.165 174.506 126.052 174.772 128.934C175.083 131.949 174.861 132.836 173.753 132.437C173.265 132.215 173.043 131.594 173.043 130.22C173.043 127.072 172.6 125.431 171.758 125.564C171.225 125.697 171.004 126.451 170.826 129.023C170.649 131.727 170.472 132.348 169.851 132.481C169.142 132.614 169.053 132.215 169.053 129.023C169.053 125.875 168.964 125.431 168.299 125.564C167.324 125.742 166.925 127.205 166.88 131.151C166.836 134.299 166.88 134.388 168.565 136.25L170.25 138.112L169.984 145.649L169.718 153.143L167.944 153.542C166.127 153.941 161.471 153.719 160.052 153.187C159.387 152.921 159.299 152.167 159.299 146.802V140.728L160.629 139.753C162.624 138.289 163.732 135.718 163.732 132.703C163.688 126.496 159.299 122.86 154.954 125.476C150.653 128.092 150.741 137.181 155.087 139.708L156.638 140.639V145.871C156.638 148.797 156.461 151.236 156.239 151.369C155.663 151.724 152.16 149.329 150.387 147.334C143.204 139.353 143.426 127.693 150.963 120.2C153.269 117.894 157.303 115.544 160.008 114.879C162.358 114.347 167.102 114.303 169.452 114.879Z" fill="white"/>
<path d="M199.986 112.275C199.232 112.719 199.188 114.448 199.188 138.213V163.663L200.119 164.195C201.715 165.037 228.406 164.461 231.776 163.53C239.934 161.268 244.988 156.524 246.851 149.43C247.737 146.194 248.092 137.104 247.604 131.873C247.25 128.37 246.851 126.641 245.786 124.424C243.215 118.926 238.205 114.935 231.332 113.029C228.628 112.231 226.544 112.098 214.484 111.965C205.217 111.876 200.473 111.965 199.986 112.275ZM225.302 127.261C228.317 128.769 228.672 129.744 228.805 137.06C228.982 144.509 228.628 146.548 226.677 148.41C225.391 149.652 224.992 149.741 221.534 149.918L217.809 150.051V138.257V126.463H220.824C222.775 126.463 224.327 126.729 225.302 127.261Z" fill="white"/>
</svg>
