<svg width="277" height="277" viewBox="0 0 277 277" fill="none" xmlns="http://www.w3.org/2000/svg">
<rect width="277" height="277" rx="138.5" fill="#F02A00"/>
<path d="M216.676 61.2324C216.299 61.2324 215.922 61.2324 215.545 61.4221L138.413 87.0324V215.653C139.167 215.653 139.921 215.463 140.487 215.273L217.996 189.663C219.505 189.094 220.637 187.576 220.448 185.869V65.2162C220.637 62.9397 218.751 61.2324 216.676 61.2324Z" fill="white"/>
<path d="M138.224 86.8462L61.0919 61.2359C59.0174 60.4771 56.943 61.6153 56.1886 63.7021C56.1886 63.8918 56 64.0815 56 64.2712C56 64.4609 56 64.4609 56 64.6506C56 64.8403 56 64.8403 56 65.03V185.872C56 187.2 56.7544 188.528 57.8859 189.287C58.0745 189.477 58.2631 189.477 58.4517 189.667L136.149 215.277C136.338 215.277 136.526 215.277 136.526 215.467H136.715C137.281 215.467 137.658 215.656 138.224 215.656V86.8462Z" fill="url(#paint0_linear_563_6631)"/>
<defs>
<linearGradient id="paint0_linear_563_6631" x1="55.8151" y1="121.018" x2="330.229" y2="233.122" gradientUnits="userSpaceOnUse">
<stop stop-color="white"/>
<stop offset="1" stop-color="#E1251B"/>
</linearGradient>
</defs>
</svg>
