<svg width="277" height="277" viewBox="0 0 277 277" fill="none" xmlns="http://www.w3.org/2000/svg">
<rect width="277" height="277" rx="138.5" fill="#FC153C"/>
<path d="M222.804 160.426C222.693 160.426 222.586 160.382 222.507 160.303C222.428 160.224 222.383 160.117 222.383 160.005V104.37C222.383 104.308 222.367 104.246 222.337 104.191C222.307 104.136 222.263 104.09 222.211 104.057C222.158 104.024 222.097 104.004 222.035 104.001C221.972 103.997 221.91 104.009 221.854 104.037C221.854 104.037 218.006 106.699 213.854 110.159C211.596 112.01 209.445 113.986 207.41 116.079C207.41 116.079 206.857 116.582 206.857 116.959V159.097C206.857 163.762 208.051 167.371 210.407 169.824C212.762 172.277 217.443 173.515 222.51 173.515H228.585C228.652 173.516 228.718 173.503 228.78 173.477C228.842 173.452 228.898 173.414 228.946 173.367C228.993 173.32 229.031 173.263 229.057 173.201C229.082 173.139 229.095 173.073 229.095 173.006V160.938C229.095 160.803 229.041 160.673 228.946 160.577C228.85 160.481 228.72 160.428 228.585 160.428L222.804 160.426Z" fill="white"/>
<path d="M203.286 118.998C203.22 118.909 203.135 118.837 203.036 118.787C202.938 118.737 202.829 118.71 202.718 118.709C197.972 118.687 193.225 118.669 188.479 118.654C188.33 118.653 188.185 118.7 188.066 118.79C187.947 118.879 187.862 119.005 187.821 119.148C185.801 126.348 183.724 133.553 181.591 140.764C180.025 146.892 178.431 153.022 176.808 159.154C175.264 153.033 173.693 146.908 172.096 140.782C169.863 133.554 167.61 126.323 165.336 119.088C165.292 118.945 165.203 118.821 165.083 118.732C164.963 118.643 164.819 118.595 164.67 118.594C162.323 127.331 159.928 136.072 157.486 144.816C160.586 154.266 163.643 163.712 166.66 173.153C166.703 173.292 166.79 173.414 166.908 173.5C167.026 173.586 167.168 173.633 167.314 173.633C173.284 173.622 179.253 173.607 185.222 173.588C185.369 173.587 185.512 173.54 185.632 173.454C185.751 173.368 185.841 173.247 185.889 173.108C192.001 155.24 197.949 137.405 203.401 119.625C203.433 119.519 203.439 119.407 203.419 119.298C203.399 119.189 203.354 119.086 203.286 118.998Z" fill="#FFDE14"/>
<path d="M164.664 118.594H163.659H163.655C159.04 118.586 154.425 118.58 149.809 118.578H149.716C149.56 118.578 149.408 118.631 149.286 118.728C149.164 118.825 149.078 118.96 149.042 119.112C147.329 126.337 145.601 133.564 143.859 140.792C142.776 145.606 141.694 150.42 140.611 155.235C139.315 150.415 138.019 145.594 136.724 140.774C134.647 133.544 132.586 126.316 130.541 119.089C130.5 118.944 130.412 118.817 130.292 118.726C130.172 118.635 130.026 118.585 129.876 118.585C125.297 118.589 120.718 118.596 116.14 118.605C115.988 118.605 115.84 118.655 115.719 118.747C115.597 118.838 115.509 118.966 115.466 119.113C113.362 126.336 111.276 133.556 109.209 140.773C107.933 145.582 106.673 150.389 105.43 155.195C104.328 150.399 103.244 145.605 102.177 140.812C100.457 133.6 98.7869 126.392 97.1671 119.187C97.1338 119.036 97.0499 118.9 96.9289 118.804C96.8078 118.708 96.6578 118.656 96.5031 118.657C91.6497 118.672 86.7992 118.691 81.9523 118.713C81.844 118.713 81.7376 118.739 81.6406 118.787C81.5435 118.835 81.4583 118.905 81.3921 118.991C81.3258 119.075 81.2801 119.174 81.2578 119.279C81.2354 119.384 81.237 119.493 81.2632 119.597C85.8664 137.38 90.9504 155.211 96.2312 173.072C96.2744 173.218 96.3639 173.347 96.4859 173.439C96.6079 173.531 96.7566 173.581 96.9093 173.582C102.063 173.599 107.218 173.614 112.374 173.626C112.524 173.626 112.67 173.577 112.79 173.487C112.909 173.396 112.996 173.269 113.036 173.124C115.127 165.57 117.262 158.012 119.441 150.45C120.493 146.46 121.553 142.587 122.618 138.595C123.696 142.582 124.778 146.452 125.87 150.442C128.057 158.01 130.253 165.58 132.461 173.151C132.503 173.296 132.591 173.424 132.712 173.515C132.832 173.606 132.979 173.656 133.13 173.656C138.387 173.66 143.643 173.66 148.9 173.656C149.052 173.655 149.201 173.604 149.322 173.512C149.443 173.419 149.531 173.29 149.572 173.143C152.198 163.672 154.825 154.202 157.453 144.734L157.481 144.818C159.911 136.074 162.305 127.334 164.664 118.596V118.594Z" fill="white"/>
<path d="M166.698 123.669L158.846 149.209L157.406 144.823L164.68 118.656C164.83 118.674 164.97 118.736 165.085 118.833C165.2 118.93 165.284 119.059 165.327 119.203L166.698 123.669Z" fill="#FDBC2C"/>
<path d="M80.4793 155.52C80.2393 149.938 78.1591 143.74 64.8871 139.479C64.1799 139.245 63.4812 139.024 62.8012 138.807C58.0732 137.304 53.4872 136.097 53.3848 133.267C53.2888 130.657 56.1719 129.173 60.0543 129.037C63.3903 128.913 66.9285 130.12 71.1301 132.828C71.3132 132.946 71.5352 132.988 71.7488 132.945C71.9625 132.903 72.1515 132.779 72.2754 132.6C74.4028 129.569 76.5489 126.513 78.7137 123.432C78.7806 123.339 78.8282 123.234 78.8543 123.122C78.8804 123.011 78.8848 122.895 78.866 122.782C78.8489 122.673 78.8093 122.569 78.7496 122.477C78.6899 122.385 78.6111 122.306 78.5191 122.246C72.8461 118.343 66.0752 116.353 59.1926 116.566C46.3238 116.966 37.1754 123.802 37.6394 134.297C37.9434 141.581 43.9383 146.423 53.8543 149.787C54.4791 150.004 55.1039 150.218 55.7191 150.427C60.6223 152.094 64.979 153.67 65.0894 156.651C65.1942 159.48 62.7893 161.2 58.3957 161.347C58.2165 161.353 58.0375 161.357 57.8551 161.357C53.7711 161.357 49.5905 159.852 44.7801 156.592C44.6882 156.53 44.5848 156.487 44.4762 156.465C44.3676 156.444 44.2559 156.443 44.1473 156.465C44.0386 156.486 43.9353 156.53 43.8434 156.591C43.7514 156.653 43.6725 156.733 43.6113 156.825C41.4807 160.005 39.3291 163.213 37.1574 166.451C37.0293 166.629 36.9764 166.85 37.0098 167.066C37.0431 167.283 37.1606 167.477 37.3363 167.608C43.2973 171.625 50.3078 173.8 57.4957 173.862C57.7909 173.862 58.0842 173.856 58.3762 173.845C72.3898 173.425 80.9609 166.533 80.4793 155.52Z" fill="white"/>
<path d="M238.204 164.323L237.758 163.311H237.168V164.323H236.678V161.649H237.805C237.922 161.634 238.04 161.645 238.153 161.681C238.265 161.716 238.368 161.775 238.456 161.853C238.544 161.932 238.614 162.028 238.661 162.136C238.709 162.244 238.732 162.361 238.731 162.478C238.738 162.639 238.694 162.798 238.607 162.932C238.519 163.067 238.391 163.171 238.242 163.229L238.731 164.322L238.204 164.323ZM237.804 162.075H237.164V162.875H237.813C238.088 162.875 238.246 162.732 238.246 162.475C238.245 162.419 238.233 162.365 238.21 162.314C238.187 162.264 238.153 162.218 238.112 162.181C238.071 162.143 238.022 162.114 237.969 162.096C237.916 162.078 237.861 162.071 237.805 162.076L237.804 162.075Z" fill="white"/>
<path d="M237.612 165.732C237.069 165.732 236.539 165.571 236.087 165.269C235.636 164.967 235.284 164.539 235.076 164.037C234.868 163.535 234.814 162.984 234.92 162.451C235.026 161.919 235.288 161.43 235.672 161.046C236.055 160.662 236.544 160.401 237.077 160.295C237.609 160.189 238.161 160.243 238.663 160.451C239.164 160.659 239.593 161.011 239.895 161.462C240.196 161.914 240.357 162.445 240.357 162.988C240.356 163.716 240.067 164.412 239.552 164.927C239.037 165.441 238.34 165.731 237.612 165.732V165.732ZM237.612 160.743C237.169 160.743 236.737 160.875 236.368 161.121C236 161.367 235.713 161.716 235.543 162.125C235.374 162.534 235.328 162.985 235.414 163.419C235.501 163.854 235.713 164.253 236.026 164.566C236.339 164.879 236.738 165.093 237.172 165.18C237.606 165.267 238.057 165.223 238.466 165.054C238.875 164.885 239.226 164.599 239.472 164.232C239.719 163.864 239.851 163.431 239.852 162.989C239.852 162.394 239.616 161.824 239.196 161.403C238.776 160.983 238.207 160.745 237.612 160.743V160.743Z" fill="white"/>
</svg>
